<?xml version="1.0" encoding="UTF-8"?>
<svg width="256" height="256" version="1.1" viewBox="0 0 256 256" xmlns="http://www.w3.org/2000/svg">
 <g transform="matrix(4.4695 0 0 4.4457 -756.49 -313.64)">
  <g id="Icon">
   <path transform="matrix(.54358 0 0 .54358 170.58 72.112)" d="m30 100c-16.569 0-30-13.431-30-30v-40c0-16.569 13.431-30 30-30h40c16.569 0 30 13.431 30 30v40c0 16.569-13.431 30-30 30z" fill="#f90" font-family="none" font-size="none" font-weight="none" stroke-miterlimit="10" text-anchor="none" style="mix-blend-mode:normal" data-fill-palette-color="accent"/>
   <path transform="matrix(.32615 0 0 .32615 181.45 82.983)" d="m100 50c0 27.614-22.386 50-50 50s-50-22.386-50-50 22.386-50 50-50 50 22.386 50 50zm-75.976-2.455c0.231-7.002 1.444-13.7 3.478-19.893l-16.703-0.019c-3.387 5.927-5.471 12.694-5.858 19.912zm23.535-19.91h-14.886c-2.218 6.213-3.523 12.898-3.77 19.91h18.655v-19.91zm0-22.698c-5.256 4.698-9.693 10.769-12.899 17.772h12.899zm-33.527 17.771h15.318c2.577-6.159 6.12-11.869 10.201-16.596-10.536 2.376-19.55 8.73-25.519 16.596zm81.027 24.837c-0.387-7.219-2.472-13.985-5.858-19.912l-16.705 0.019c2.035 6.193 3.248 12.891 3.479 19.893zm-42.618 0h18.656c-0.247-7.012-1.553-13.697-3.771-19.91h-14.885zm0-24.837h12.9c-3.207-7.003-7.644-13.074-12.9-17.772zm8.007-16.595c4.082 4.727 7.626 10.437 10.202 16.595h15.318c-5.968-7.866-14.981-14.22-25.52-16.595zm-55.507 46.342c0.387 7.217 2.471 13.985 5.858 19.91l16.703-0.018c-2.034-6.192-3.247-12.891-3.478-19.893h-19.083zm42.618 0h-18.656c0.247 7.013 1.552 13.697 3.77 19.91h14.886zm0 24.837h-12.9c3.207 7.004 7.643 13.074 12.899 17.771v-17.771zm-8.008 16.595c-4.081-4.729-7.625-10.437-10.201-16.596h-15.318c5.969 7.866 14.983 14.22 25.519 16.596zm36.423-41.432c-0.23 7.002-1.443 13.7-3.479 19.893l16.705 0.018c3.387-5.925 5.472-12.693 5.858-19.91h-19.084zm-23.533 19.91h14.886c2.218-6.213 3.523-12.897 3.771-19.91h-18.657zm0 22.698c5.257-4.697 9.693-10.768 12.9-17.771h-12.9zm33.527-17.771h-15.318c-2.576 6.159-6.12 11.867-10.202 16.596 10.539-2.377 19.552-8.731 25.52-16.596z" fill="#fff" data-fill-palette-color="quaternary"/>
  </g>
 </g>
</svg>
